<?xml version="1.0" encoding="UTF-8"?><svg xmlns="http://www.w3.org/2000/svg" xmlns:xlink="http://www.w3.org/1999/xlink" viewBox="0 0 262.34 262.34"><defs><style>.f{fill:#fff;}.g{fill:url(#d);}.h{fill:url(#e);}</style><linearGradient id="d" x1="0" y1="131.17" x2="262.34" y2="131.17" gradientTransform="matrix(1, 0, 0, 1, 0, 0)" gradientUnits="userSpaceOnUse"><stop offset="0" stop-color="#e95b81"/><stop offset="1" stop-color="#b136a5"/></linearGradient><linearGradient id="e" x1="109.2" y1="140.38" x2="150.18" y2="140.38" xlink:href="#d"/></defs><g id="a"/><g id="b"><g id="c"><g><rect class="g" width="262.34" height="262.34" rx="50" ry="50"/><g><path class="f" d="M231.21,84.4c-8.44-2.12-13.15-7.35-15.42-16.09q-5.26,9.88-16.43,16.62c8.31,2.17,13.49,7.14,16.15,15.05,2.33-8.37,8.09-12.71,15.69-15.58Z"/><path class="f" d="M80.82,80.83c2.22-8.17,7.61-12.24,14.84-14.87-7.43-2.6-12.81-6.78-15.44-14.65-1.72,8.36-8,11.58-14.86,14.75,7.6,2.47,12.57,7.36,15.46,14.78Z"/><path class="f" d="M42.86,103.25c1.16-4.27,3.97-6.39,7.75-7.77-3.88-1.36-6.69-3.54-8.06-7.65-.9,4.36-4.18,6.04-7.76,7.7,3.97,1.29,6.56,3.84,8.07,7.72Z"/><path class="f" d="M217.97,119.68c1.16-4.27,3.97-6.39,7.75-7.77-3.88-1.36-6.69-3.54-8.06-7.65-.9,4.36-4.18,6.04-7.76,7.7,3.97,1.29,6.56,3.84,8.07,7.72Z"/><g><path class="f" d="M49.8,106.36s3.34-6.94,20.64-10.19c9.91-1.86,20.1-1.65,29.97,.42l100.79,21.13s10.48,2,9.34,6.78c0,0-.91,1.75-2.58,2.66s-88,58.43-88,58.43c0,0-7.17,4.86-13.09-.75-5.92-5.62-56.46-75.89-56.46-75.89,0,0-1.37-1.21-.61-2.58Z"/><path class="f" d="M44.27,113.23l58.78,77.52-55.54,12.37s-15.48,4.33-16.39-14.8l13.14-75.1Z"/><path class="f" d="M122.15,192.4l91.12-60.99-1.23,64.36s3.18,15.76-15.96,15.26l-73.93-18.62Z"/><path class="f" d="M94.28,88.73l39.08-28.13s6.83-5.24,14.57,2.5c7.74,7.74,38.33,44.55,38.33,44.55l-91.98-18.92Z"/><path class="h" d="M147.14,149.28l-30.46,14.14c-3.8,1.76-8.03-1.4-7.41-5.54l5.44-36.55c.62-4.14,5.59-5.94,8.71-3.14l25.02,22.4c2.81,2.52,2.13,7.1-1.29,8.69Z"/></g></g></g></g></g></svg>